<mxfile host="Electron" modified="2023-12-29T17:06:41.730Z" agent="Mozilla/5.0 (Windows NT 10.0; Win64; x64) AppleWebKit/537.36 (KHTML, like Gecko) draw.io/22.1.15 Chrome/120.0.6099.109 Electron/28.1.0 Safari/537.36" etag="zQT-U9fMRU9uw-7ivur5" version="22.1.15" type="device">
  <diagram name="StrÃ¡nka-1" id="YqRgB6bF7ps_heDAT-wN">
    <mxGraphModel dx="1098" dy="838" grid="1" gridSize="10" guides="1" tooltips="1" connect="1" arrows="1" fold="1" page="1" pageScale="1" pageWidth="827" pageHeight="1169" math="0" shadow="0">
      <root>
        <mxCell id="0" />
        <mxCell id="1" parent="0" />
        <mxCell id="3DRULBe8b-DT2g1qf9wI-1" value="" style="swimlane;startSize=0;" parent="1" vertex="1">
          <mxGeometry x="173" y="320" width="481" height="60" as="geometry">
            <mxRectangle x="310" y="330" width="50" height="40" as="alternateBounds" />
          </mxGeometry>
        </mxCell>
        <mxCell id="3DRULBe8b-DT2g1qf9wI-2" value="k1" style="rounded=0;whiteSpace=wrap;html=1;" parent="3DRULBe8b-DT2g1qf9wI-1" vertex="1">
          <mxGeometry width="60" height="60" as="geometry" />
        </mxCell>
        <mxCell id="3DRULBe8b-DT2g1qf9wI-3" value="k2" style="rounded=0;whiteSpace=wrap;html=1;" parent="3DRULBe8b-DT2g1qf9wI-1" vertex="1">
          <mxGeometry x="60" width="61" height="60" as="geometry" />
        </mxCell>
        <mxCell id="3DRULBe8b-DT2g1qf9wI-4" value="k3" style="rounded=0;whiteSpace=wrap;html=1;" parent="3DRULBe8b-DT2g1qf9wI-1" vertex="1">
          <mxGeometry x="121" width="61" height="60" as="geometry" />
        </mxCell>
        <mxCell id="3DRULBe8b-DT2g1qf9wI-5" value="k4" style="rounded=0;whiteSpace=wrap;html=1;" parent="3DRULBe8b-DT2g1qf9wI-1" vertex="1">
          <mxGeometry x="182" width="60" height="60" as="geometry" />
        </mxCell>
        <mxCell id="3DRULBe8b-DT2g1qf9wI-6" value="k5" style="rounded=0;whiteSpace=wrap;html=1;" parent="3DRULBe8b-DT2g1qf9wI-1" vertex="1">
          <mxGeometry x="242" width="60" height="60" as="geometry" />
        </mxCell>
        <mxCell id="3DRULBe8b-DT2g1qf9wI-7" value="k6" style="rounded=0;whiteSpace=wrap;html=1;" parent="3DRULBe8b-DT2g1qf9wI-1" vertex="1">
          <mxGeometry x="302" width="60" height="60" as="geometry" />
        </mxCell>
        <mxCell id="3DRULBe8b-DT2g1qf9wI-8" value="k7" style="rounded=0;whiteSpace=wrap;html=1;" parent="3DRULBe8b-DT2g1qf9wI-1" vertex="1">
          <mxGeometry x="362" width="60" height="60" as="geometry" />
        </mxCell>
        <mxCell id="3DRULBe8b-DT2g1qf9wI-9" value="k8" style="rounded=0;whiteSpace=wrap;html=1;" parent="3DRULBe8b-DT2g1qf9wI-1" vertex="1">
          <mxGeometry x="422" width="60" height="60" as="geometry" />
        </mxCell>
        <mxCell id="3DRULBe8b-DT2g1qf9wI-13" value="" style="swimlane;startSize=0;" parent="1" vertex="1">
          <mxGeometry x="173" y="450" width="481" height="60" as="geometry">
            <mxRectangle x="310" y="330" width="50" height="40" as="alternateBounds" />
          </mxGeometry>
        </mxCell>
        <mxCell id="3DRULBe8b-DT2g1qf9wI-14" value="k4" style="rounded=0;whiteSpace=wrap;html=1;" parent="3DRULBe8b-DT2g1qf9wI-13" vertex="1">
          <mxGeometry width="60" height="60" as="geometry" />
        </mxCell>
        <mxCell id="3DRULBe8b-DT2g1qf9wI-15" value="k1" style="rounded=0;whiteSpace=wrap;html=1;" parent="3DRULBe8b-DT2g1qf9wI-13" vertex="1">
          <mxGeometry x="60" width="61" height="60" as="geometry" />
        </mxCell>
        <mxCell id="3DRULBe8b-DT2g1qf9wI-16" value="k3" style="rounded=0;whiteSpace=wrap;html=1;" parent="3DRULBe8b-DT2g1qf9wI-13" vertex="1">
          <mxGeometry x="121" width="61" height="60" as="geometry" />
        </mxCell>
        <mxCell id="3DRULBe8b-DT2g1qf9wI-17" value="k5" style="rounded=0;whiteSpace=wrap;html=1;" parent="3DRULBe8b-DT2g1qf9wI-13" vertex="1">
          <mxGeometry x="182" width="60" height="60" as="geometry" />
        </mxCell>
        <mxCell id="3DRULBe8b-DT2g1qf9wI-18" value="k7" style="rounded=0;whiteSpace=wrap;html=1;" parent="3DRULBe8b-DT2g1qf9wI-13" vertex="1">
          <mxGeometry x="242" width="60" height="60" as="geometry" />
        </mxCell>
        <mxCell id="3DRULBe8b-DT2g1qf9wI-19" value="k2" style="rounded=0;whiteSpace=wrap;html=1;" parent="3DRULBe8b-DT2g1qf9wI-13" vertex="1">
          <mxGeometry x="302" width="60" height="60" as="geometry" />
        </mxCell>
        <mxCell id="3DRULBe8b-DT2g1qf9wI-20" value="k8" style="rounded=0;whiteSpace=wrap;html=1;" parent="3DRULBe8b-DT2g1qf9wI-13" vertex="1">
          <mxGeometry x="362" width="60" height="60" as="geometry" />
        </mxCell>
        <mxCell id="3DRULBe8b-DT2g1qf9wI-21" value="k6" style="rounded=0;whiteSpace=wrap;html=1;" parent="3DRULBe8b-DT2g1qf9wI-13" vertex="1">
          <mxGeometry x="422" width="60" height="60" as="geometry" />
        </mxCell>
        <mxCell id="3DRULBe8b-DT2g1qf9wI-24" value="&lt;font style=&quot;font-size: 15px;&quot;&gt;&lt;b&gt;Inverse of initial permutation&lt;/b&gt;&lt;/font&gt;" style="text;html=1;strokeColor=none;fillColor=none;align=center;verticalAlign=middle;whiteSpace=wrap;rounded=0;" parent="1" vertex="1">
          <mxGeometry x="30" y="465" width="140" height="30" as="geometry" />
        </mxCell>
        <mxCell id="3DRULBe8b-DT2g1qf9wI-25" value="&lt;font style=&quot;font-size: 15px;&quot;&gt;&lt;b&gt;Original&lt;/b&gt;&lt;/font&gt;" style="text;html=1;strokeColor=none;fillColor=none;align=center;verticalAlign=middle;whiteSpace=wrap;rounded=0;" parent="1" vertex="1">
          <mxGeometry x="90" y="335" width="60" height="30" as="geometry" />
        </mxCell>
        <mxCell id="3L1_UajxC72WX7b1dI68-1" style="rounded=0;orthogonalLoop=1;jettySize=auto;html=1;exitX=0.5;exitY=1;exitDx=0;exitDy=0;entryX=0.5;entryY=0;entryDx=0;entryDy=0;endArrow=none;endFill=0;" parent="1" source="3DRULBe8b-DT2g1qf9wI-3" target="3DRULBe8b-DT2g1qf9wI-19" edge="1">
          <mxGeometry relative="1" as="geometry" />
        </mxCell>
        <mxCell id="3L1_UajxC72WX7b1dI68-2" style="rounded=0;orthogonalLoop=1;jettySize=auto;html=1;exitX=0.5;exitY=1;exitDx=0;exitDy=0;entryX=0.5;entryY=0;entryDx=0;entryDy=0;endArrow=none;endFill=0;" parent="1" source="3DRULBe8b-DT2g1qf9wI-7" target="3DRULBe8b-DT2g1qf9wI-21" edge="1">
          <mxGeometry relative="1" as="geometry" />
        </mxCell>
        <mxCell id="3L1_UajxC72WX7b1dI68-3" style="rounded=0;orthogonalLoop=1;jettySize=auto;html=1;exitX=0.5;exitY=1;exitDx=0;exitDy=0;entryX=0.5;entryY=0;entryDx=0;entryDy=0;endArrow=none;endFill=0;" parent="1" source="3DRULBe8b-DT2g1qf9wI-4" target="3DRULBe8b-DT2g1qf9wI-16" edge="1">
          <mxGeometry relative="1" as="geometry" />
        </mxCell>
        <mxCell id="3L1_UajxC72WX7b1dI68-4" style="rounded=0;orthogonalLoop=1;jettySize=auto;html=1;exitX=0.5;exitY=1;exitDx=0;exitDy=0;entryX=0.5;entryY=0;entryDx=0;entryDy=0;endArrow=none;endFill=0;" parent="1" source="3DRULBe8b-DT2g1qf9wI-2" target="3DRULBe8b-DT2g1qf9wI-15" edge="1">
          <mxGeometry relative="1" as="geometry" />
        </mxCell>
        <mxCell id="3L1_UajxC72WX7b1dI68-5" style="rounded=0;orthogonalLoop=1;jettySize=auto;html=1;exitX=0.5;exitY=1;exitDx=0;exitDy=0;entryX=0.5;entryY=0;entryDx=0;entryDy=0;endArrow=none;endFill=0;" parent="1" source="3DRULBe8b-DT2g1qf9wI-5" target="3DRULBe8b-DT2g1qf9wI-14" edge="1">
          <mxGeometry relative="1" as="geometry" />
        </mxCell>
        <mxCell id="3L1_UajxC72WX7b1dI68-6" style="rounded=0;orthogonalLoop=1;jettySize=auto;html=1;exitX=0.5;exitY=1;exitDx=0;exitDy=0;endArrow=none;endFill=0;entryX=0.5;entryY=0;entryDx=0;entryDy=0;" parent="1" source="3DRULBe8b-DT2g1qf9wI-9" target="3DRULBe8b-DT2g1qf9wI-20" edge="1">
          <mxGeometry relative="1" as="geometry">
            <mxPoint x="550" y="440" as="targetPoint" />
          </mxGeometry>
        </mxCell>
        <mxCell id="3L1_UajxC72WX7b1dI68-7" style="rounded=0;orthogonalLoop=1;jettySize=auto;html=1;exitX=0.5;exitY=1;exitDx=0;exitDy=0;entryX=0.5;entryY=0;entryDx=0;entryDy=0;endArrow=none;endFill=0;" parent="1" source="3DRULBe8b-DT2g1qf9wI-6" target="3DRULBe8b-DT2g1qf9wI-17" edge="1">
          <mxGeometry relative="1" as="geometry" />
        </mxCell>
        <mxCell id="3L1_UajxC72WX7b1dI68-8" style="rounded=0;orthogonalLoop=1;jettySize=auto;html=1;exitX=0.5;exitY=1;exitDx=0;exitDy=0;entryX=0.5;entryY=0;entryDx=0;entryDy=0;endArrow=none;endFill=0;" parent="1" source="3DRULBe8b-DT2g1qf9wI-8" target="3DRULBe8b-DT2g1qf9wI-18" edge="1">
          <mxGeometry relative="1" as="geometry" />
        </mxCell>
      </root>
    </mxGraphModel>
  </diagram>
</mxfile>
